<?xml version="1.0" encoding="UTF-8"?>
<!DOCTYPE svg PUBLIC "-//W3C//DTD SVG 1.1//EN" "http://www.w3.org/Graphics/SVG/1.1/DTD/svg11.dtd">
<svg xmlns="http://www.w3.org/2000/svg" version="1.1" width="716px" height="430px" style="shape-rendering:geometricPrecision; text-rendering:geometricPrecision; image-rendering:optimizeQuality; fill-rule:evenodd; clip-rule:evenodd" xmlns:xlink="http://www.w3.org/1999/xlink">
<g><path style="opacity:1" fill="#fefffe" d="M -0.5,-0.5 C 238.167,-0.5 476.833,-0.5 715.5,-0.5C 715.5,142.833 715.5,286.167 715.5,429.5C 682.167,429.5 648.833,429.5 615.5,429.5C 612.402,427.108 609.069,424.942 605.5,423C 499.05,381.774 393.05,339.441 287.5,296C 239.525,276.345 192.858,254.012 147.5,229C 108.364,206.829 74.864,177.995 47,142.5C 31.9439,121.776 17.2772,100.776 3,79.5C 1.9609,78.2899 0.794229,77.2899 -0.5,76.5C -0.5,50.8333 -0.5,25.1667 -0.5,-0.5 Z"/></g>
<g><path style="opacity:1" fill="#d1f7fb" d="M -0.5,76.5 C 0.794229,77.2899 1.9609,78.2899 3,79.5C 17.2772,100.776 31.9439,121.776 47,142.5C 74.864,177.995 108.364,206.829 147.5,229C 192.858,254.012 239.525,276.345 287.5,296C 393.05,339.441 499.05,381.774 605.5,423C 609.069,424.942 612.402,427.108 615.5,429.5C 410.167,429.5 204.833,429.5 -0.5,429.5C -0.5,311.833 -0.5,194.167 -0.5,76.5 Z"/></g>
</svg>
